<?xml version="1.0" encoding="UTF-8" standalone="no"?>
<!-- Created with Inkscape (http://www.inkscape.org/) -->

<svg
   version="1.1"
   id="svg2"
   xml:space="preserve"
   width="184.33333"
   height="129.46667"
   viewBox="0 0 184.33333 129.46667"
   sodipodi:docname="unimed-seeklogo.com.eps"
   xmlns:inkscape="http://www.inkscape.org/namespaces/inkscape"
   xmlns:sodipodi="http://sodipodi.sourceforge.net/DTD/sodipodi-0.dtd"
   xmlns="http://www.w3.org/2000/svg"
   xmlns:svg="http://www.w3.org/2000/svg"><defs
     id="defs6" /><sodipodi:namedview
     id="namedview4"
     pagecolor="#ffffff"
     bordercolor="#666666"
     borderopacity="1.0"
     inkscape:pageshadow="2"
     inkscape:pageopacity="0.0"
     inkscape:pagecheckerboard="0" /><g
     id="g8"
     inkscape:groupmode="layer"
     inkscape:label="ink_ext_XXXXXX"
     transform="matrix(1.3333333,0,0,-1.3333333,0,129.46667)"><g
       id="g10"
       transform="scale(0.1)"><path
         d="m 136.758,10.3594 c -69.7072,0 -126.4142,56.7187 -126.4142,126.3476 v 697.695 c 0,69.649 56.707,126.328 126.4142,126.328 H 1245.87 c 69.69,0 126.37,-56.679 126.37,-126.328 V 10.3594 H 136.758"
         style="fill:#2d9d59;fill-opacity:1;fill-rule:nonzero;stroke:none"
         id="path12" /><path
         d="M 1245.87,970.977 H 136.758 C 61.3672,970.977 0,909.754 0,834.402 V 136.707 C 0,61.3945 61.3672,0 136.758,0 H 1362 1382.53 V 20.6641 834.402 c 0,75.352 -61.24,136.575 -136.66,136.575 z m 0,-20.559 c 64.08,0 116.13,-51.973 116.13,-116.016 V 20.6641 H 136.758 c -64.1603,0 -116.1213,51.9804 -116.1213,116.0429 v 697.695 c 0,64.043 51.961,116.016 116.1213,116.016 H 1245.87"
         style="fill:#ffffff;fill-opacity:1;fill-rule:nonzero;stroke:none"
         id="path14" /><path
         d="M 258.711,364.863 H 192.785 V 259.941 c 0,-50.781 37.762,-70.539 85.653,-70.539 52.011,0 86.457,18.45 86.457,74.309 v 101.152 h -64.61 V 262.48 c 0,-16.808 -3.847,-28.507 -21.047,-28.507 -15.918,0 -20.527,12.101 -20.527,28.507 v 102.383 0"
         style="fill:#ffffff;fill-opacity:1;fill-rule:evenodd;stroke:none"
         id="path16" /><path
         d="m 381.328,192.313 h 62.11 v 74.316 c 0,7.141 0,17.226 11.269,17.226 10.949,0 10.949,-10.085 10.949,-17.226 v -74.316 h 62.149 v 89.484 c 0,25.183 -12.207,42.383 -45.383,42.383 -17.625,0 -34.402,-7.121 -41.914,-25.196 h -0.438 v 22.235 h -58.742 v -128.906 0"
         style="fill:#ffffff;fill-opacity:1;fill-rule:evenodd;stroke:none"
         id="path18" /><path
         d="m 611.34,377.488 h -62.129 v -42.832 h 62.129 v 42.832 z M 549.211,192.313 h 62.129 v 128.906 h -62.129 v -128.906 0"
         style="fill:#ffffff;fill-opacity:1;fill-rule:evenodd;stroke:none"
         id="path20" /><path
         d="m 631.895,192.313 h 62.16 v 74.316 c 0,7.141 0,17.226 11.336,17.226 10.5,0 10.5,-10.085 10.5,-17.226 v -74.316 h 62.488 v 74.316 c 0,7.141 0,17.226 10.586,17.226 11.308,0 11.308,-10.085 11.308,-17.226 v -74.316 h 62.122 v 77.277 c 0,25.215 0,54.59 -45.372,54.59 -15.507,0 -36.914,-7.121 -41.164,-22.239 h -0.324 c -5.047,15.547 -23.152,22.239 -40.347,22.239 -19.727,0 -36.485,-7.121 -44.094,-25.196 h -0.41 v 22.235 h -58.789 v -128.906 0"
         style="fill:#ffffff;fill-opacity:1;fill-rule:evenodd;stroke:none"
         id="path22" /><path
         d="m 1021.97,241.934 v 7.507 c 0,43.645 -17.73,74.739 -67.634,74.739 -52.059,0 -79.766,-21.828 -79.766,-65.071 0,-44.531 27.707,-69.707 79.766,-69.707 21.785,0 41.594,2.493 57.954,7.578 v 33.145 c -9.67,-5.047 -25.247,-7.93 -42.017,-7.93 -18.476,0 -33.152,3.75 -34.414,19.739 h 86.111 z m -86.111,27.234 c -0.808,10.051 2.09,25.215 16.789,25.215 13.856,0 15.516,-15.535 15.516,-25.215 h -32.305 v 0"
         style="fill:#ffffff;fill-opacity:1;fill-rule:evenodd;stroke:none"
         id="path24" /><path
         d="m 1129.4,257.43 c 0,-12.129 -2.1,-26.453 -15.11,-26.453 -13.88,0 -16.03,14.324 -16.03,27.695 0,13.445 2.15,26.863 15.18,26.863 13.86,0 15.96,-13.418 15.96,-28.105 z m 60.46,-65.117 v 185.175 h -62.14 v -73.047 h -0.42 c -9.73,13.821 -22.27,19.739 -39.07,19.739 -38.58,0 -54.55,-30.657 -54.55,-65.508 0,-36.953 15.04,-69.27 56.64,-69.27 20.19,0 32.78,7.168 41.11,26.446 h 0.46 v -23.535 h 57.97 v 0"
         style="fill:#ffffff;fill-opacity:1;fill-rule:evenodd;stroke:none"
         id="path26" /><path
         d="M 691.211,778.32 H 794.016 L 947.551,573.086 H 845.195 l 76.77,-102.785 H 794.016 l -77.239,102.375 h 51.219 l -76.785,102.781 h 76.785 L 691.211,778.32 v 0"
         style="fill:#ffffff;fill-opacity:1;fill-rule:evenodd;stroke:none"
         id="path28" /><path
         d="M 691.211,778.32 H 588.34 L 434.785,573.086 H 537.18 L 460.383,470.301 H 588.34 l 77.265,102.375 h -51.191 l 76.797,102.781 h -76.797 l 76.797,102.863 v 0"
         style="fill:#ffffff;fill-opacity:1;fill-rule:evenodd;stroke:none"
         id="path30" /><path
         d="M 1189.86,429.043 H 192.785 v -10.305 h 997.075 v 10.305 0 0"
         style="fill:#ffffff;fill-opacity:1;fill-rule:evenodd;stroke:none"
         id="path32" /></g></g></svg>
